<svg width="189" height="33" viewBox="0 0 189 33" fill="none" xmlns="http://www.w3.org/2000/svg">
<path d="M17.7441 24.3096C17.7441 23.6943 17.6484 23.1475 17.457 22.6689C17.2793 22.1904 16.958 21.7529 16.4932 21.3564C16.0283 20.96 15.3721 20.5771 14.5244 20.208C13.6904 19.8252 12.624 19.4355 11.3252 19.0391C9.90332 18.6016 8.59082 18.1162 7.3877 17.583C6.19824 17.0361 5.15918 16.4072 4.27051 15.6963C3.38184 14.9717 2.69141 14.1445 2.19922 13.2148C1.70703 12.2715 1.46094 11.1846 1.46094 9.9541C1.46094 8.7373 1.71387 7.62988 2.21973 6.63184C2.73926 5.63379 3.4707 4.77246 4.41406 4.04785C5.37109 3.30957 6.49902 2.74219 7.79785 2.3457C9.09668 1.93555 10.5322 1.73047 12.1045 1.73047C14.3193 1.73047 16.2266 2.14062 17.8262 2.96094C19.4395 3.78125 20.6768 4.88184 21.5381 6.2627C22.4131 7.64355 22.8506 9.16797 22.8506 10.8359H17.7441C17.7441 9.85156 17.5322 8.9834 17.1084 8.23145C16.6982 7.46582 16.0693 6.86426 15.2217 6.42676C14.3877 5.98926 13.3281 5.77051 12.043 5.77051C10.8262 5.77051 9.81445 5.95508 9.00781 6.32422C8.20117 6.69336 7.59961 7.19238 7.20312 7.82129C6.80664 8.4502 6.6084 9.16113 6.6084 9.9541C6.6084 10.5146 6.73828 11.0273 6.99805 11.4922C7.25781 11.9434 7.6543 12.3672 8.1875 12.7637C8.7207 13.1465 9.39062 13.5088 10.1973 13.8506C11.0039 14.1924 11.9541 14.5205 13.0479 14.835C14.7021 15.3271 16.1445 15.874 17.375 16.4756C18.6055 17.0635 19.6309 17.7334 20.4512 18.4854C21.2715 19.2373 21.8867 20.0918 22.2969 21.0488C22.707 21.9922 22.9121 23.0654 22.9121 24.2686C22.9121 25.5264 22.6592 26.6611 22.1533 27.6729C21.6475 28.6709 20.9229 29.5254 19.9795 30.2363C19.0498 30.9336 17.9287 31.4736 16.6162 31.8564C15.3174 32.2256 13.8682 32.4102 12.2686 32.4102C10.833 32.4102 9.41797 32.2188 8.02344 31.8359C6.64258 31.4531 5.38477 30.8721 4.25 30.0928C3.11523 29.2998 2.21289 28.3154 1.54297 27.1396C0.873047 25.9502 0.538086 24.5625 0.538086 22.9766H5.68555C5.68555 23.9473 5.84961 24.7744 6.17773 25.458C6.51953 26.1416 6.99121 26.7021 7.59277 27.1396C8.19434 27.5635 8.8916 27.8779 9.68457 28.083C10.4912 28.2881 11.3525 28.3906 12.2686 28.3906C13.4717 28.3906 14.4766 28.2197 15.2832 27.8779C16.1035 27.5361 16.7188 27.0576 17.1289 26.4424C17.5391 25.8271 17.7441 25.1162 17.7441 24.3096ZM37.1445 9.81055V13.4199H24.6348V9.81055H37.1445ZM28.2441 4.37598H33.1865V25.8682C33.1865 26.5518 33.2822 27.0781 33.4736 27.4473C33.6787 27.8027 33.959 28.042 34.3145 28.165C34.6699 28.2881 35.0869 28.3496 35.5654 28.3496C35.9072 28.3496 36.2354 28.3291 36.5498 28.2881C36.8643 28.2471 37.1172 28.2061 37.3086 28.165L37.3291 31.9385C36.9189 32.0615 36.4404 32.1709 35.8936 32.2666C35.3604 32.3623 34.7451 32.4102 34.0479 32.4102C32.9131 32.4102 31.9082 32.2119 31.0332 31.8154C30.1582 31.4053 29.4746 30.7422 28.9824 29.8262C28.4902 28.9102 28.2441 27.6934 28.2441 26.1758V4.37598ZM53.4688 27.5498V16.9678C53.4688 16.1748 53.3252 15.4912 53.0381 14.917C52.751 14.3428 52.3135 13.8984 51.7256 13.584C51.1514 13.2695 50.4268 13.1123 49.5518 13.1123C48.7451 13.1123 48.0479 13.249 47.46 13.5225C46.8721 13.7959 46.4141 14.165 46.0859 14.6299C45.7578 15.0947 45.5938 15.6211 45.5938 16.209H40.6719C40.6719 15.334 40.8838 14.4863 41.3076 13.666C41.7314 12.8457 42.3467 12.1143 43.1533 11.4717C43.96 10.8291 44.9238 10.3232 46.0449 9.9541C47.166 9.58496 48.4238 9.40039 49.8184 9.40039C51.4863 9.40039 52.9629 9.68066 54.248 10.2412C55.5469 10.8018 56.5654 11.6494 57.3037 12.7842C58.0557 13.9053 58.4316 15.3135 58.4316 17.0088V26.873C58.4316 27.8848 58.5 28.7939 58.6367 29.6006C58.7871 30.3936 58.999 31.084 59.2725 31.6719V32H54.207C53.9746 31.4668 53.79 30.79 53.6533 29.9697C53.5303 29.1357 53.4688 28.3291 53.4688 27.5498ZM54.1865 18.5059L54.2275 21.5615H50.6797C49.7637 21.5615 48.957 21.6504 48.2598 21.8281C47.5625 21.9922 46.9814 22.2383 46.5166 22.5664C46.0518 22.8945 45.7031 23.291 45.4707 23.7559C45.2383 24.2207 45.1221 24.7471 45.1221 25.335C45.1221 25.9229 45.2588 26.4629 45.5322 26.9551C45.8057 27.4336 46.2021 27.8096 46.7217 28.083C47.2549 28.3564 47.8975 28.4932 48.6494 28.4932C49.6611 28.4932 50.543 28.2881 51.2949 27.8779C52.0605 27.4541 52.6621 26.9414 53.0996 26.3398C53.5371 25.7246 53.7695 25.1436 53.7969 24.5967L55.3965 26.791C55.2324 27.3516 54.9521 27.9531 54.5557 28.5957C54.1592 29.2383 53.6396 29.8535 52.9971 30.4414C52.3682 31.0156 51.6094 31.4873 50.7207 31.8564C49.8457 32.2256 48.834 32.4102 47.6855 32.4102C46.2363 32.4102 44.9443 32.123 43.8096 31.5488C42.6748 30.9609 41.7861 30.1748 41.1436 29.1904C40.501 28.1924 40.1797 27.0645 40.1797 25.8066C40.1797 24.6309 40.3984 23.5918 40.8359 22.6895C41.2871 21.7734 41.9434 21.0078 42.8047 20.3926C43.6797 19.7773 44.7461 19.3125 46.0039 18.998C47.2617 18.6699 48.6973 18.5059 50.3105 18.5059H54.1865ZM68.5625 14.0352V32H63.6201V9.81055H68.3369L68.5625 14.0352ZM75.3506 9.66699L75.3096 14.2607C75.0088 14.2061 74.6807 14.165 74.3252 14.1377C73.9834 14.1104 73.6416 14.0967 73.2998 14.0967C72.4521 14.0967 71.707 14.2197 71.0645 14.4658C70.4219 14.6982 69.8818 15.04 69.4443 15.4912C69.0205 15.9287 68.6924 16.4619 68.46 17.0908C68.2275 17.7197 68.0908 18.4238 68.0498 19.2031L66.9219 19.2852C66.9219 17.8906 67.0586 16.5986 67.332 15.4092C67.6055 14.2197 68.0156 13.1738 68.5625 12.2715C69.123 11.3691 69.8203 10.665 70.6543 10.1592C71.502 9.65332 72.4795 9.40039 73.5869 9.40039C73.8877 9.40039 74.209 9.42773 74.5508 9.48242C74.9062 9.53711 75.1729 9.59863 75.3506 9.66699ZM88.332 9.81055L88.1885 10.9385H78.1807L78.3447 9.81055H88.332ZM83.3691 3.82227H84.4971L80.5391 26.6885C80.416 27.3994 80.3682 28.1104 80.3955 28.8213C80.4229 29.5186 80.6211 30.1064 80.9902 30.585C81.3594 31.0498 81.9883 31.2891 82.877 31.3027C83.2598 31.3027 83.6357 31.2822 84.0049 31.2412C84.374 31.2002 84.7432 31.1592 85.1123 31.1182L85.1533 32.1641C84.7842 32.2598 84.415 32.3213 84.0459 32.3486C83.6768 32.3896 83.3008 32.4102 82.918 32.4102C81.7559 32.3965 80.9014 32.123 80.3545 31.5898C79.8076 31.043 79.4727 30.3389 79.3496 29.4775C79.2402 28.6025 79.2676 27.6729 79.4316 26.6885L83.3691 3.82227ZM95.3047 9.81055L91.4902 32H90.3828L94.1973 9.81055H95.3047ZM94.8535 2.83789C94.8945 2.56445 95.0381 2.31152 95.2842 2.0791C95.5439 1.84668 95.8174 1.73047 96.1045 1.73047C96.4189 1.73047 96.6719 1.85352 96.8633 2.09961C97.0684 2.3457 97.1436 2.61914 97.0889 2.91992C97.0479 3.19336 96.8975 3.44629 96.6377 3.67871C96.3779 3.89746 96.1045 4.00684 95.8174 4.00684C95.5166 4.00684 95.2637 3.89062 95.0586 3.6582C94.8672 3.41211 94.7988 3.13867 94.8535 2.83789ZM106.051 31.3027C107.336 31.3027 108.512 31.0566 109.578 30.5645C110.658 30.0723 111.574 29.375 112.326 28.4727C113.078 27.5703 113.625 26.5107 113.967 25.2939H115.074C114.746 26.7158 114.151 27.96 113.29 29.0264C112.429 30.0928 111.376 30.9268 110.132 31.5283C108.888 32.1162 107.534 32.4102 106.071 32.4102C104.526 32.4102 103.241 32.082 102.216 31.4258C101.204 30.7695 100.425 29.9014 99.8779 28.8213C99.3311 27.7412 98.9824 26.5518 98.832 25.2529C98.6816 23.9404 98.7021 22.6348 98.8936 21.3359L99.0166 20.4746C99.2354 19.1074 99.6113 17.7676 100.145 16.4551C100.691 15.1426 101.396 13.96 102.257 12.9072C103.118 11.8408 104.144 10.9932 105.333 10.3643C106.536 9.72168 107.903 9.40039 109.435 9.40039C110.952 9.40039 112.244 9.74219 113.311 10.4258C114.391 11.0957 115.197 12.0117 115.73 13.1738C116.264 14.3359 116.476 15.6553 116.366 17.1318H115.259C115.368 15.874 115.204 14.7461 114.767 13.748C114.343 12.75 113.673 11.9639 112.757 11.3896C111.854 10.8018 110.754 10.5078 109.455 10.5078C108.061 10.5078 106.83 10.7949 105.764 11.3691C104.697 11.9434 103.781 12.709 103.016 13.666C102.264 14.623 101.648 15.6963 101.17 16.8857C100.691 18.0615 100.35 19.2578 100.145 20.4746L100.001 21.3359C99.8232 22.4844 99.7754 23.6465 99.8574 24.8223C99.9531 25.9844 100.22 27.0576 100.657 28.042C101.095 29.0127 101.751 29.7988 102.626 30.4004C103.515 30.9883 104.656 31.2891 106.051 31.3027ZM125.738 0.5L120.304 32H119.196L124.631 0.5H125.738ZM138.063 9.83105L125.533 20.0645L121.678 22.9766L121.37 22.1357L124.979 19.1211L136.361 9.83105H138.063ZM133.408 32L125.205 19.4902L126.005 18.6699L134.762 32H133.408ZM146.041 32.4102C144.551 32.4102 143.266 32.0889 142.186 31.4463C141.119 30.79 140.258 29.9287 139.602 28.8623C138.959 27.7822 138.521 26.5928 138.289 25.2939C138.07 23.9951 138.05 22.6895 138.228 21.377L138.371 20.4746C138.576 19.1484 138.973 17.8359 139.561 16.5371C140.148 15.2246 140.9 14.0352 141.816 12.9688C142.732 11.8887 143.799 11.0273 145.016 10.3848C146.232 9.72852 147.579 9.40039 149.056 9.40039C150.382 9.40039 151.51 9.67383 152.439 10.2207C153.369 10.7539 154.114 11.4785 154.675 12.3945C155.235 13.2969 155.611 14.3086 155.803 15.4297C156.008 16.5508 156.028 17.6992 155.864 18.875L155.7 20.167H139.13L139.273 19.0596H154.675L154.736 18.793C154.969 17.4805 154.914 16.1885 154.572 14.917C154.23 13.6455 153.602 12.5996 152.686 11.7793C151.77 10.9453 150.56 10.5215 149.056 10.5078C147.729 10.5078 146.52 10.8018 145.426 11.3896C144.346 11.9639 143.396 12.7432 142.575 13.7275C141.769 14.6982 141.099 15.7715 140.565 16.9473C140.046 18.123 139.684 19.2988 139.479 20.4746L139.335 21.377C139.157 22.5254 139.157 23.6807 139.335 24.8428C139.513 26.0049 139.875 27.0781 140.422 28.0625C140.969 29.0332 141.707 29.8193 142.637 30.4209C143.566 31.0088 144.694 31.3096 146.021 31.3232C147.401 31.3369 148.659 31.0771 149.794 30.5439C150.929 29.9971 151.975 29.2451 152.932 28.2881L153.67 28.8623C153.014 29.6143 152.289 30.2568 151.496 30.79C150.703 31.3232 149.849 31.7266 148.933 32C148.017 32.2734 147.053 32.4102 146.041 32.4102ZM169.748 9.81055L169.604 10.9385H159.597L159.761 9.81055H169.748ZM164.785 3.82227H165.913L161.955 26.6885C161.832 27.3994 161.784 28.1104 161.812 28.8213C161.839 29.5186 162.037 30.1064 162.406 30.585C162.775 31.0498 163.404 31.2891 164.293 31.3027C164.676 31.3027 165.052 31.2822 165.421 31.2412C165.79 31.2002 166.159 31.1592 166.528 31.1182L166.569 32.1641C166.2 32.2598 165.831 32.3213 165.462 32.3486C165.093 32.3896 164.717 32.4102 164.334 32.4102C163.172 32.3965 162.317 32.123 161.771 31.5898C161.224 31.043 160.889 30.3389 160.766 29.4775C160.656 28.6025 160.684 27.6729 160.848 26.6885L164.785 3.82227ZM185.847 26.5654C186.065 25.4443 185.881 24.5215 185.293 23.7969C184.705 23.0586 183.933 22.4775 182.976 22.0537C182.032 21.6299 181.116 21.3086 180.228 21.0898C179.421 20.8848 178.607 20.6455 177.787 20.3721C176.967 20.085 176.229 19.7227 175.572 19.2852C174.916 18.834 174.417 18.2666 174.075 17.583C173.747 16.8857 173.658 16.0244 173.809 14.999C173.945 14.042 174.273 13.2148 174.793 12.5176C175.312 11.8203 175.948 11.2461 176.7 10.7949C177.466 10.3301 178.293 9.98145 179.182 9.74902C180.07 9.5166 180.945 9.40039 181.807 9.40039C183.119 9.40039 184.315 9.63281 185.396 10.0977C186.489 10.5625 187.337 11.2666 187.938 12.21C188.554 13.1396 188.786 14.3154 188.636 15.7373H187.528C187.651 14.5752 187.453 13.6113 186.934 12.8457C186.414 12.0664 185.696 11.4854 184.78 11.1025C183.864 10.7061 182.88 10.5078 181.827 10.5078C180.87 10.5078 179.899 10.665 178.915 10.9795C177.931 11.2803 177.069 11.7588 176.331 12.415C175.593 13.0713 175.121 13.9189 174.916 14.958C174.752 15.8193 174.82 16.5439 175.121 17.1318C175.422 17.7197 175.866 18.2051 176.454 18.5879C177.056 18.957 177.719 19.2646 178.443 19.5107C179.168 19.7432 179.865 19.9482 180.535 20.126C181.656 20.4131 182.743 20.8027 183.796 21.2949C184.862 21.7734 185.703 22.4365 186.318 23.2842C186.947 24.1182 187.159 25.2188 186.954 26.5859C186.804 27.5977 186.455 28.4727 185.908 29.2109C185.375 29.9355 184.705 30.5371 183.898 31.0156C183.105 31.4805 182.244 31.8291 181.314 32.0615C180.398 32.2939 179.482 32.4102 178.566 32.4102C177.322 32.4102 176.119 32.2051 174.957 31.7949C173.809 31.3711 172.879 30.7148 172.168 29.8262C171.471 28.9238 171.19 27.7686 171.327 26.3604H172.414C172.359 27.5635 172.619 28.5342 173.193 29.2725C173.781 29.9971 174.554 30.5166 175.511 30.8311C176.468 31.1455 177.479 31.3027 178.546 31.3027C179.53 31.2891 180.542 31.1182 181.581 30.79C182.634 30.4482 183.557 29.9355 184.35 29.252C185.143 28.5547 185.642 27.6592 185.847 26.5654Z" fill="#B1EDE8"/>
</svg>
